<svg width="311" height="172" viewBox="0 0 311 172" fill="none" xmlns="http://www.w3.org/2000/svg">
<g clip-path="url(#clip0_2_3)">
<path d="M156.495 172C240.554 172 308.697 167.397 308.697 161.719C308.697 156.041 240.554 151.438 156.495 151.438C72.4357 151.438 4.29236 156.041 4.29236 161.719C4.29236 167.397 72.4357 172 156.495 172Z" fill="#F2F2F2"/>
<path d="M150.661 49.1683C125.863 49.1683 108.059 65.4016 108.059 103.279C108.059 146.207 125.863 157.57 150.661 157.57C175.459 157.57 194.324 145.125 194.324 103.279C194.324 58.5476 175.459 49.1683 150.661 49.1683ZM150.824 143.321C133.649 143.321 124.675 133.04 124.675 103.307C124.675 77.072 134.016 63.2372 151.192 63.2372C168.367 63.2372 177.708 72.3248 177.708 103.307C177.708 132.29 168 143.321 150.824 143.321Z" fill="#2F2E41"/>
<path d="M93.2097 127.629H82.9567V96.8228C82.9567 95.1866 82.3197 93.6174 81.1858 92.4604C80.0518 91.3034 78.5139 90.6534 76.9103 90.6534H74.5078C73.7138 90.6534 72.9275 90.8129 72.1939 91.123C71.4603 91.433 70.7938 91.8875 70.2323 92.4604C69.6708 93.0332 69.2254 93.7134 68.9216 94.4619C68.6177 95.2104 68.4613 96.0127 68.4613 96.8228V127.629H39.5414C38.9464 127.629 38.3616 127.472 37.8436 127.174C37.3256 126.875 36.892 126.445 36.5849 125.925C36.2778 125.405 36.1077 124.813 36.0909 124.206C36.0742 123.599 36.2114 122.998 36.4894 122.462L67.0979 63.3512C67.4795 62.6142 67.7108 61.806 67.7778 60.9753C67.8448 60.1446 67.7462 59.3087 67.4879 58.518C67.2295 57.7273 66.8168 56.9981 66.2747 56.3747C65.7326 55.7512 65.0723 55.2462 64.3336 54.8903L62.5267 54.0197C61.1237 53.3437 59.5196 53.2439 58.0465 53.7409C56.5734 54.2379 55.3439 55.2938 54.6124 56.69L17.2813 127.945C16.6456 129.159 16.313 130.513 16.313 131.889C16.313 132.988 16.5251 134.076 16.9371 135.091C17.3491 136.106 17.9531 137.028 18.7144 137.805C19.4758 138.582 20.3796 139.198 21.3743 139.618C22.3691 140.039 23.4353 140.255 24.512 140.255H68.4613V159.735C68.4613 160.706 68.6488 161.668 69.013 162.565C69.3772 163.462 69.9111 164.277 70.5841 164.964C71.2571 165.651 72.0561 166.195 72.9354 166.567C73.8148 166.939 74.7572 167.13 75.709 167.13H75.709C76.6608 167.13 77.6033 166.939 78.4826 166.567C79.3619 166.195 80.1609 165.651 80.8339 164.964C81.507 164.277 82.0408 163.462 82.405 162.565C82.7693 161.668 82.9567 160.706 82.9567 159.735V140.255H93.2096C94.8506 140.255 96.4243 139.59 97.5846 138.406C98.7449 137.222 99.3967 135.616 99.3967 133.942C99.3967 132.268 98.7449 130.662 97.5846 129.478C96.4243 128.294 94.8506 127.629 93.2097 127.629Z" fill="#7763FF"/>
<path d="M283.065 127.629H272.812V96.8228C272.812 95.1866 272.175 93.6174 271.041 92.4604C269.907 91.3034 268.369 90.6534 266.765 90.6534H264.363C263.569 90.6534 262.783 90.8129 262.049 91.123C261.316 91.433 260.649 91.8875 260.088 92.4604C259.526 93.0332 259.081 93.7134 258.777 94.4619C258.473 95.2104 258.317 96.0127 258.317 96.8228V127.629H229.397C228.802 127.629 228.217 127.472 227.699 127.174C227.181 126.875 226.747 126.445 226.44 125.925C226.133 125.405 225.963 124.813 225.946 124.206C225.929 123.599 226.067 122.998 226.345 122.462L256.953 63.3512C257.335 62.6142 257.566 61.806 257.633 60.9753C257.7 60.1446 257.601 59.3087 257.343 58.518C257.085 57.7273 256.672 56.9981 256.13 56.3747C255.588 55.7512 254.927 55.2462 254.189 54.8903L252.382 54.0197C250.979 53.3437 249.375 53.2439 247.902 53.7409C246.429 54.2379 245.199 55.2938 244.468 56.69L207.136 127.945C206.501 129.159 206.168 130.513 206.168 131.889C206.168 134.108 207.032 136.236 208.57 137.805C210.107 139.374 212.193 140.255 214.367 140.255H258.317V159.735C258.317 161.696 259.08 163.577 260.439 164.964C261.799 166.351 263.642 167.13 265.564 167.13C267.486 167.13 269.33 166.351 270.689 164.964C272.048 163.577 272.812 161.696 272.812 159.735V140.255H283.065C284.706 140.255 286.279 139.59 287.44 138.406C288.6 137.222 289.252 135.616 289.252 133.942C289.252 132.268 288.6 130.662 287.44 129.478C286.279 128.294 284.706 127.629 283.065 127.629Z" fill="#7763FF"/>
<path d="M96.038 124.022H85.7851V93.2155C85.7851 92.4053 85.6287 91.603 85.3249 90.8545C85.021 90.106 84.5756 89.4259 84.0142 88.853C83.4527 88.2801 82.7861 87.8256 82.0525 87.5156C81.3189 87.2055 80.5327 87.046 79.7386 87.046H77.3362C75.7325 87.046 74.1946 87.696 73.0607 88.853C71.9267 90.01 71.2897 91.5792 71.2897 93.2155V124.022H42.3698C41.7748 124.022 41.19 123.865 40.672 123.566C40.154 123.268 39.7204 122.838 39.4133 122.318C39.1062 121.798 38.936 121.206 38.9193 120.599C38.9025 119.992 39.0398 119.391 39.3177 118.854L69.9262 59.7438C70.3079 59.0068 70.5392 58.1986 70.6062 57.3679C70.6732 56.5372 70.5746 55.7013 70.3162 54.9106C70.0579 54.1199 69.6452 53.3908 69.1031 52.7673C68.561 52.1438 67.9006 51.6388 67.162 51.2829L65.3551 50.4123C63.952 49.7363 62.348 49.6365 60.8749 50.1335C59.4017 50.6305 58.1722 51.6864 57.4408 53.0826L20.1096 124.338C19.4739 125.551 19.1414 126.906 19.1414 128.282V128.282C19.1414 130.501 20.0052 132.628 21.5428 134.197C23.0804 135.766 25.1658 136.648 27.3403 136.648H71.2897V156.127C71.2897 157.099 71.4771 158.06 71.8414 158.957C72.2056 159.855 72.7395 160.67 73.4125 161.357C74.0855 162.043 74.8845 162.588 75.7638 162.96C76.6431 163.331 77.5856 163.523 78.5374 163.523H78.5374C80.4596 163.523 82.3031 162.743 83.6623 161.357C85.0215 159.97 85.7851 158.089 85.7851 156.127V136.648H96.038C96.8505 136.648 97.6551 136.484 98.4057 136.167C99.1564 135.85 99.8384 135.385 100.413 134.799C100.987 134.212 101.443 133.516 101.754 132.751C102.065 131.985 102.225 131.164 102.225 130.335V130.335C102.225 129.506 102.065 128.685 101.754 127.919C101.443 127.153 100.987 126.457 100.413 125.871C99.8384 125.285 99.1564 124.82 98.4057 124.502C97.6551 124.185 96.8505 124.022 96.038 124.022V124.022Z" stroke="#3F3D56" stroke-miterlimit="10"/>
<path d="M288.368 124.022H278.115V93.2155C278.115 91.5792 277.478 90.01 276.344 88.853C275.21 87.696 273.672 87.046 272.069 87.046H269.666C268.872 87.046 268.086 87.2055 267.352 87.5156C266.619 87.8256 265.952 88.2801 265.391 88.853C264.829 89.4259 264.384 90.106 264.08 90.8545C263.776 91.603 263.62 92.4053 263.62 93.2155V124.022H234.7C234.105 124.022 233.52 123.865 233.002 123.566C232.484 123.268 232.05 122.838 231.743 122.318C231.436 121.798 231.266 121.206 231.249 120.599C231.233 119.992 231.37 119.391 231.648 118.854L262.256 59.7438C262.638 59.0068 262.869 58.1986 262.936 57.3679C263.003 56.5372 262.905 55.7013 262.646 54.9106C262.388 54.1199 261.975 53.3908 261.433 52.7673C260.891 52.1438 260.231 51.6388 259.492 51.2829L257.685 50.4123C256.282 49.7363 254.678 49.6365 253.205 50.1335C251.732 50.6305 250.502 51.6864 249.771 53.0826L212.44 124.338C211.804 125.551 211.471 126.906 211.471 128.282C211.471 130.501 212.335 132.628 213.873 134.197C215.41 135.766 217.496 136.648 219.67 136.648H263.62V156.127C263.62 158.089 264.383 159.97 265.743 161.357C267.102 162.743 268.945 163.523 270.867 163.523V163.523C272.79 163.523 274.633 162.743 275.992 161.357C277.352 159.97 278.115 158.089 278.115 156.127V136.648H288.368C289.181 136.648 289.985 136.484 290.736 136.167C291.486 135.85 292.168 135.385 292.743 134.799C293.318 134.212 293.773 133.516 294.084 132.751C294.395 131.985 294.555 131.164 294.555 130.335V130.335C294.555 128.66 293.903 127.055 292.743 125.871C291.583 124.687 290.009 124.022 288.368 124.022V124.022Z" stroke="#3F3D56" stroke-miterlimit="10"/>
<path d="M156.318 45.9217C131.52 45.9217 113.715 62.1549 113.715 100.033C113.715 142.96 131.52 154.324 156.318 154.324C181.116 154.324 199.981 141.878 199.981 100.033C199.981 55.3009 181.116 45.9217 156.318 45.9217ZM156.481 140.075C139.305 140.075 130.332 129.793 130.332 100.06C130.332 73.8254 139.673 59.9905 156.848 59.9905C174.024 59.9905 183.364 69.0781 183.364 100.06C183.364 129.044 173.657 140.075 156.481 140.075V140.075Z" stroke="#3F3D56" stroke-miterlimit="10"/>
<path d="M136.441 9.17116C138.497 9.17116 140.163 7.47067 140.163 5.373C140.163 3.27534 138.497 1.57484 136.441 1.57484C134.385 1.57484 132.718 3.27534 132.718 5.373C132.718 7.47067 134.385 9.17116 136.441 9.17116Z" fill="#2F2E41"/>
<path d="M145.52 27.6061C151.286 27.6061 155.961 21.4263 155.961 13.8031C155.961 6.17984 151.286 0 145.52 0C139.754 0 135.079 6.17984 135.079 13.8031C135.079 21.4263 139.754 27.6061 145.52 27.6061Z" fill="#2F2E41"/>
<path opacity="0.1" d="M145.52 23.4374C140.29 23.4374 135.958 18.3529 135.197 11.7187C135.118 12.4106 135.079 13.1065 135.079 13.8031C135.079 21.4263 139.754 27.6061 145.52 27.6061C151.286 27.6061 155.961 21.4263 155.961 13.8031C155.961 13.1065 155.922 12.4106 155.843 11.7187C155.082 18.3529 150.75 23.4374 145.52 23.4374Z" fill="black"/>
<path d="M166.766 54.2259C166.542 55.1661 165.575 55.919 164.504 56.4451C162.253 57.5511 159.477 57.8812 156.783 57.992C156.096 58.0346 155.407 58.0216 154.722 57.9531C153.394 57.8221 152.149 57.238 151.187 56.2952C151.118 56.2495 151.062 56.1869 151.024 56.113C150.985 56.0392 150.966 55.9566 150.967 55.873C150.968 55.7894 150.99 55.7075 151.031 55.6349C151.072 55.5623 151.13 55.5014 151.2 55.4579C152.634 53.8508 155.026 52.8654 157.437 52.1559C159.264 51.6179 162.452 50.2243 164.445 50.4124C166.376 50.5946 167.049 53.0388 166.766 54.2259Z" fill="#3F3D56"/>
<path opacity="0.1" d="M166.766 54.2259C166.542 55.1661 165.575 55.919 164.504 56.4451C162.253 57.5511 159.477 57.8812 156.783 57.992C156.096 58.0346 155.407 58.0216 154.722 57.9531C153.394 57.8221 152.149 57.238 151.187 56.2952C151.118 56.2495 151.062 56.1869 151.024 56.113C150.985 56.0392 150.966 55.9566 150.967 55.873C150.968 55.7894 150.99 55.7075 151.031 55.6349C151.072 55.5623 151.13 55.5014 151.2 55.4579C152.634 53.8508 155.026 52.8654 157.437 52.1559C159.264 51.6179 162.452 50.2243 164.445 50.4124C166.376 50.5946 167.049 53.0388 166.766 54.2259Z" fill="black"/>
<path d="M138.144 47.1993C137.457 48.5734 137.332 50.1697 137.798 51.6373C138.272 53.0939 139.158 54.3743 140.346 55.3165C143.258 57.6987 147.267 58.0265 151 57.9934C154.271 57.9644 157.538 57.7359 160.783 57.3093C161.87 57.2109 162.938 56.9578 163.957 56.5572C165.175 56.0194 166.246 55.0329 166.68 53.7528C167.113 52.4727 166.805 50.9052 165.775 50.0509C164.87 49.3003 163.622 49.197 162.458 49.1256L155.796 48.7172C156.454 48.0376 157.331 47.6532 158.132 47.1591C159.195 46.5037 159.902 45.4031 160.675 44.4109C161.866 42.9583 163.162 41.5985 164.553 40.3432C164.769 41.6122 165.556 42.6542 166.482 43.5298C167.408 44.4054 168.475 45.1103 169.438 45.9439C171.769 47.9631 173.447 50.7035 175.899 52.5682C177.585 52.116 179.162 51.3129 180.529 50.2093L179.577 48.4484C179.497 48.2672 179.374 48.1097 179.217 47.9912C178.948 47.8219 178.6 47.9092 178.287 47.8613C177.45 47.7332 177.084 46.7472 176.756 45.9514C175.854 43.7664 174.128 42.0711 172.654 40.2388C171.565 38.8862 170.6 37.4354 169.769 35.9043C169.274 34.9912 168.821 34.0404 168.149 33.2538C167.477 32.4671 166.535 31.8486 165.512 31.8464C164.608 31.8444 163.775 32.3126 162.998 32.7835C160.631 34.2178 158.354 35.8007 156.179 37.5231C155.041 38.4244 153.911 39.3768 152.576 39.9295C152.014 40.1622 151.421 40.3212 150.882 40.6043C149.938 41.1002 149.221 41.9393 148.45 42.6841C145.698 45.3405 141.93 47.0616 138.144 47.1993Z" fill="#3F3D56"/>
<path d="M152.073 28.2917C152.042 29.1037 151.873 29.904 151.573 30.6567C151.421 31.0321 151.195 31.3716 150.908 31.6538C150.622 31.9361 150.282 32.1552 149.909 32.2973C149.379 32.4421 148.824 32.4605 148.286 32.351C147.818 32.3011 147.366 32.144 146.964 31.8916C146.34 31.4534 146.028 30.6715 145.915 29.9063C145.801 29.1421 145.852 28.3611 145.78 27.5913C145.709 26.9695 145.593 26.3539 145.433 25.7497C145.384 25.5486 145.334 25.3485 145.285 25.1484C145.237 24.9483 145.189 24.7482 145.146 24.5482C145.106 24.3601 145.069 24.1711 145.037 23.9812C145.011 23.8209 144.987 23.6598 144.97 23.4976C144.954 23.017 144.875 22.5407 144.736 22.0812C144.606 21.7832 144.443 21.5013 144.25 21.241C144.167 21.1205 144.087 21.0001 144.014 20.8751C143.801 20.55 143.702 20.1613 143.733 19.7717C143.742 19.7115 143.756 19.6523 143.776 19.5948C143.783 19.5726 143.791 19.5503 143.8 19.529C143.882 19.5064 143.957 19.4638 144.019 19.4048C144.081 19.3459 144.128 19.2725 144.155 19.1909C144.187 19.0156 144.172 18.8351 144.113 18.6675C144.045 18.4333 143.952 18.2075 143.836 17.994C143.76 17.8532 143.501 17.5994 143.499 17.4382C143.495 17.1139 144.116 16.8527 144.368 16.7248C145.135 16.3326 145.991 16.1555 146.848 16.2116C147.398 16.2496 147.993 16.4219 148.296 16.8916C148.569 17.315 148.532 17.8634 148.649 18.3553C148.661 18.4268 148.691 18.494 148.735 18.5507C148.794 18.6058 148.869 18.6408 148.948 18.6508C149.083 18.6781 149.221 18.6837 149.357 18.6675H149.358C149.394 18.6646 149.43 18.6593 149.465 18.6517C149.677 18.6118 149.877 18.5234 150.051 18.3933C150.164 18.3627 150.277 18.3377 150.392 18.3182C150.396 18.3177 150.401 18.3168 150.405 18.3154C150.86 19.7801 150.919 21.3503 151.292 22.8417C151.476 23.5838 151.74 24.3165 151.777 25.0799C151.78 25.1132 151.781 25.1475 151.782 25.1818C151.787 25.4273 151.768 25.6746 151.778 25.9192C151.782 26.0293 151.794 26.139 151.815 26.2471C151.855 26.421 151.906 26.5924 151.966 26.7603L151.969 26.7687C151.986 26.8224 152.002 26.8771 152.016 26.9317C152.026 26.9715 152.035 27.0105 152.042 27.0503L152.043 27.0531C152.111 27.4624 152.121 27.8794 152.073 28.2917Z" fill="#FBBEBE"/>
<path d="M145.702 18.7129C148.66 18.7129 151.058 16.2658 151.058 13.2472C151.058 10.2286 148.66 7.78159 145.702 7.78159C142.743 7.78159 140.345 10.2286 140.345 13.2472C140.345 16.2658 142.743 18.7129 145.702 18.7129Z" fill="#FBBEBE"/>
<path d="M179.71 43.0266C179.555 41.5355 179.035 40.1079 178.199 38.8746C178.338 39.7176 178.478 40.5603 178.617 41.4027C178.444 41.4539 178.259 41.4523 178.087 41.3982C177.914 41.3441 177.761 41.2397 177.646 41.0979C177.42 40.8106 177.247 40.4838 177.136 40.1336C176.528 38.5921 175.732 37.1346 174.767 35.7953C171.357 35.5054 167.986 34.063 164.987 32.3816C161.988 30.7012 159.18 28.6863 156.221 26.9345C155.708 26.618 155.173 26.3394 154.621 26.1007C153.695 25.7219 152.655 25.5255 151.777 25.0799C151.718 25.0502 151.659 25.0187 151.601 24.9863C151.403 24.8763 151.215 24.7475 151.04 24.6019C150.946 24.5235 150.856 24.4394 150.771 24.3499C150.333 23.8299 149.986 23.2371 149.744 22.5972C149.273 21.5337 149.105 20.2507 148.635 19.1872C148.851 18.9811 149.094 18.8062 149.357 18.6675H149.358C149.396 18.6471 149.434 18.6276 149.473 18.6091C149.659 18.5197 149.853 18.4475 150.051 18.3933C150.164 18.3627 150.277 18.3377 150.392 18.3182C150.396 18.3177 150.401 18.3168 150.405 18.3154C150.936 18.2273 151.479 18.2711 151.99 18.4433C152.736 18.7008 153.365 19.215 153.993 19.7013C155.012 20.434 155.989 21.2251 156.921 22.071C157.438 22.5768 157.91 23.1326 158.467 23.5921C158.929 23.9563 159.417 24.286 159.926 24.5787C162.937 26.4092 165.949 28.2394 168.961 30.0694C169.981 30.6891 171.001 31.3089 171.998 31.9647C173.513 32.9615 174.973 34.0417 176.432 35.1209C177.291 35.7564 178.151 36.3922 179.01 37.0283C179.292 37.2118 179.54 37.4452 179.741 37.7176C179.919 38.0268 180.03 38.3715 180.065 38.7282C180.281 40.1696 180.159 41.6425 179.71 43.0266Z" fill="#FBBEBE"/>
<path d="M153.402 32.402C153.04 34.0556 151.402 35.0552 150.546 36.5077C149.482 38.3105 149.916 40.4059 150.316 42.4708C149.586 43.1128 148.855 43.7548 148.125 44.3968C147.722 44.7497 147.319 45.1045 146.885 45.4167C146.252 45.8493 145.59 46.2369 144.905 46.5765C144.259 46.9156 143.612 47.255 142.966 47.5946C142.365 47.9394 141.728 48.2147 141.068 48.4154C139.794 48.7489 138.441 48.5155 137.181 48.1292C137.032 48.0894 136.889 48.0299 136.756 47.9522C136.677 47.9044 136.609 47.8411 136.554 47.766C136.43 47.5387 136.385 47.2752 136.426 47.0184C136.554 44.8544 137.073 42.7358 137.589 40.6329C137.865 39.3713 138.237 38.1334 138.7 36.9301C139.154 35.8991 139.676 34.9007 140.262 33.9416C140.909 32.735 141.676 31.5992 142.55 30.552C142.976 30.149 143.334 29.6777 143.611 29.1569C143.933 28.4065 143.809 27.5459 143.874 26.7288C143.924 26.115 144.084 25.5156 144.345 24.9604V24.9595C144.485 24.6604 144.653 24.3762 144.848 24.1109C144.936 24.3203 145.024 24.5293 145.112 24.7381C145.17 24.8752 145.228 25.012 145.285 25.1485C145.359 25.3245 145.433 25.4999 145.506 25.6746C145.718 26.1767 145.929 26.6785 146.14 27.18C146.368 27.8116 146.693 28.4023 147.102 28.9299C147.29 29.2001 147.542 29.4162 147.836 29.5569C148.129 29.6977 148.454 29.7584 148.777 29.7331C149.1 29.7078 149.412 29.5974 149.681 29.4126C149.95 29.2278 150.167 28.975 150.312 28.6789C150.617 28.1261 150.838 27.5292 150.967 26.9086C151.147 26.1529 151.171 25.3677 151.04 24.6019C150.821 23.1271 150.207 21.6208 149.76 20.2507C149.578 19.7939 149.473 19.3091 149.449 18.8166C149.449 18.7613 149.455 18.7061 149.465 18.6517C149.468 18.6379 149.47 18.623 149.473 18.6091C149.659 18.5197 149.853 18.4475 150.051 18.3933C150.164 18.3627 150.277 18.3377 150.392 18.3183C150.785 20.4897 151.179 22.6611 151.573 24.8326C151.582 24.8835 151.592 24.9345 151.601 24.9863C151.657 25.2976 151.715 25.6089 151.778 25.9192C151.835 26.2008 151.897 26.4815 151.966 26.7604L151.969 26.7687C151.993 26.8632 152.017 26.9567 152.042 27.0503L152.043 27.0531C152.113 27.3088 152.191 27.5626 152.279 27.8127C152.813 29.3199 153.744 30.8373 153.402 32.402Z" fill="#7763FF"/>
<path d="M175.141 55.6402C175.124 55.9587 175.185 56.2766 175.317 56.5656C175.652 57.1908 176.457 57.3329 177.153 57.3913C181.219 57.7324 185.31 57.6052 189.348 57.0122C189.567 56.9969 189.78 56.9296 189.969 56.8156C190.543 56.4049 190.189 55.404 189.562 55.0835C188.935 54.7631 188.191 54.8403 187.503 54.7015C186.82 54.526 186.169 54.238 185.576 53.8489C184.181 53.0311 182.807 52.1785 181.452 51.2911C180.646 50.7627 179.694 50.1989 178.786 50.5121C176.326 51.3612 175.125 52.9327 175.141 55.6402Z" fill="#3F3D56"/>
<path d="M145.167 24.4324V24.4333C145.16 24.4722 145.154 24.5102 145.146 24.5482C145.136 24.6112 145.124 24.6751 145.112 24.738C145 25.3263 144.862 25.9118 144.703 26.4935C144.267 28.1008 143.683 29.6821 143.104 31.2403C141.55 35.4183 139.995 39.5966 138.44 43.7752C138.048 44.8275 137.657 45.8808 137.211 46.9119C137.062 47.2556 136.908 47.602 136.756 47.9522C136.209 49.2056 135.685 50.4997 135.51 51.8337C135.348 52.7117 135.329 53.611 135.455 54.4952C135.629 55.3697 136.149 56.2239 136.964 56.5472C137.361 56.7056 137.931 56.9177 137.822 57.3392C137.763 57.5708 137.505 57.6838 137.273 57.7227C136.968 57.7724 136.655 57.7529 136.357 57.6655C136.06 57.5781 135.785 57.4249 135.552 57.2169C135.117 56.8232 134.783 56.2109 134.205 56.1451C133.804 56.1007 133.436 56.3452 133.069 56.5166C131.573 57.2142 129.829 56.726 128.258 56.2303C128.381 55.581 129.02 55.153 129.655 55.0233C130.29 54.8927 130.946 54.9853 131.593 54.9677C131.801 54.979 132.006 54.925 132.183 54.813C132.341 54.665 132.451 54.472 132.5 54.259C132.917 52.9983 133.228 51.7034 133.427 50.3886C133.636 49.0148 133.723 47.6196 134.021 46.2625C134.253 45.2036 134.61 44.1781 134.917 43.1387C135.511 40.9987 135.998 38.8294 136.377 36.6393C136.569 35.7293 136.706 34.8084 136.789 33.8814C136.84 33.1125 136.816 32.3399 136.888 31.5738C137.01 30.5771 137.214 29.5926 137.498 28.6307C137.775 27.5811 138.053 26.5321 138.33 25.4838C138.741 23.9321 139.183 22.3202 140.225 21.1141C140.587 20.6894 141.031 20.3452 141.528 20.1027C142.026 19.8601 142.567 19.7245 143.119 19.7041C143.325 19.7038 143.531 19.7265 143.733 19.7717C143.767 19.7801 143.8 19.7884 143.834 19.7977C144.054 19.8563 144.265 19.9455 144.461 20.0626C144.783 19.8542 144.946 19.9274 145.16 20.2488C145.347 20.589 145.435 20.9765 145.414 21.366C145.432 22.394 145.349 23.4212 145.167 24.4324Z" fill="#FBBEBE"/>
<path d="M145.52 25.6607L145.506 25.6746L145.433 25.7497L144.703 26.4936L144.345 24.9604L143.119 19.7041C143.325 19.7038 143.531 19.7265 143.733 19.7717C143.742 19.7115 143.756 19.6523 143.776 19.5948L143.834 19.7977L144.25 21.241L145.037 23.9812L145.167 24.4323V24.4333L145.52 25.6607Z" fill="#7763FF"/>
<path d="M150.152 8.89182C150.151 9.37853 150.057 9.86035 149.874 10.3097C149.69 10.7591 149.422 11.1672 149.084 11.5108C148.962 11.6358 148.831 11.7516 148.692 11.8571C148.065 12.339 147.302 12.5999 146.518 12.6002H142.162C141.199 12.5987 140.277 12.2075 139.597 11.5126C138.917 10.8176 138.535 9.87569 138.535 8.89363C138.535 7.91157 138.917 6.96964 139.597 6.27469C140.277 5.57973 141.199 5.18854 142.162 5.18703H146.518C147.48 5.18958 148.403 5.58062 149.084 6.27474C149.764 6.96887 150.149 7.90971 150.152 8.89182Z" fill="#2F2E41"/>
<path d="M154.236 9.17116C156.292 9.17116 157.958 7.47067 157.958 5.373C157.958 3.27534 156.292 1.57484 154.236 1.57484C152.18 1.57484 150.513 3.27534 150.513 5.373C150.513 7.47067 152.18 9.17116 154.236 9.17116Z" fill="#2F2E41"/>
<path opacity="0.1" d="M154.145 1.57484C154.099 1.57484 154.054 1.57669 154.009 1.57836C154.972 1.61408 155.884 2.02951 156.553 2.73724C157.221 3.44497 157.595 4.38982 157.595 5.37301C157.595 6.35619 157.221 7.30104 156.553 8.00877C155.884 8.7165 154.972 9.13193 154.009 9.16765C154.054 9.16931 154.099 9.17116 154.145 9.17116C155.132 9.17116 156.079 8.771 156.777 8.05871C157.475 7.34641 157.868 6.38034 157.868 5.37301C157.868 4.36567 157.475 3.39959 156.777 2.6873C156.079 1.97501 155.132 1.57484 154.145 1.57484Z" fill="black"/>
<path opacity="0.1" d="M136.441 1.57484C136.486 1.57484 136.532 1.57669 136.577 1.57836C135.614 1.61408 134.702 2.02951 134.033 2.73724C133.365 3.44497 132.991 4.38982 132.991 5.37301C132.991 6.35619 133.365 7.30104 134.033 8.00877C134.702 8.7165 135.614 9.13193 136.577 9.16765C136.532 9.16931 136.486 9.17116 136.441 9.17116C135.454 9.17028 134.508 8.76972 133.811 8.05752C133.113 7.34533 132.722 6.37976 132.722 5.37301C132.722 4.36625 133.113 3.40068 133.811 2.68848C134.508 1.97629 135.454 1.57573 136.441 1.57484Z" fill="black"/>
<path opacity="0.1" d="M148.692 11.8571C148.065 12.339 147.302 12.5999 146.518 12.6002H142.162C141.377 12.5999 140.614 12.339 139.988 11.8571H148.692Z" fill="black"/>
<path d="M176.82 39.3783C176.82 39.3783 177.758 42.1373 178.617 41.4027L177.932 37.7963L176.82 39.3783Z" fill="#FBBEBE"/>
<path d="M291.016 123.517C291.89 123.841 292.826 123.954 293.75 123.846C294.674 123.738 295.561 123.413 296.34 122.896C297.12 122.379 297.771 121.684 298.243 120.866C298.715 120.048 298.994 119.13 299.058 118.183C299.123 117.236 298.971 116.287 298.614 115.411C298.258 114.534 297.707 113.754 297.005 113.132C296.303 112.51 295.468 112.063 294.568 111.826C293.667 111.588 292.725 111.568 291.815 111.766L291.966 114.92L290.503 112.217C289.068 112.905 287.959 114.146 287.421 115.668C287.23 116.201 287.113 116.759 287.075 117.326C286.983 118.654 287.318 119.978 288.029 121.095C288.74 122.212 289.789 123.063 291.016 123.517Z" fill="#57B894"/>
<path d="M298.251 160.095C297.735 157.413 299.972 155.035 302.182 153.489C304.391 151.944 306.973 150.425 307.727 147.803C308.81 144.033 305.583 140.581 303.071 137.604C301.207 135.395 299.607 132.968 298.303 130.374C297.781 129.334 297.3 128.247 297.163 127.087C296.965 125.416 297.491 123.753 298.021 122.159C299.787 116.85 301.674 111.585 303.684 106.365" stroke="#3F3D56" stroke-miterlimit="10"/>
<path d="M291.263 122.705C292.137 123.029 293.073 123.142 293.997 123.034C294.921 122.926 295.808 122.601 296.588 122.084C297.367 121.567 298.019 120.872 298.49 120.054C298.962 119.236 299.241 118.318 299.305 117.371C299.37 116.424 299.218 115.475 298.862 114.599C298.505 113.722 297.954 112.942 297.252 112.32C296.55 111.698 295.716 111.251 294.815 111.014C293.914 110.777 292.972 110.756 292.063 110.954L292.213 114.108L290.751 111.405C289.315 112.093 288.207 113.334 287.668 114.856C287.477 115.389 287.361 115.947 287.323 116.514C287.23 117.842 287.565 119.166 288.276 120.283C288.987 121.4 290.036 122.251 291.263 122.705V122.705Z" stroke="#3F3D56" stroke-miterlimit="10"/>
<path d="M297.517 105.275C297.861 104.31 298.436 103.448 299.192 102.769C299.947 102.09 300.858 101.616 301.84 101.39L302.334 104.388L303.251 101.239C304.524 101.259 305.757 101.69 306.774 102.471C307.791 103.253 308.538 104.344 308.908 105.587C309.277 106.829 309.25 108.16 308.83 109.386C308.41 110.612 307.619 111.67 306.572 112.408C305.524 113.146 304.274 113.524 303.001 113.49C301.729 113.455 300.5 113.008 299.492 112.215C298.485 111.421 297.751 110.321 297.396 109.074C297.041 107.826 297.083 106.496 297.517 105.275H297.517Z" fill="#57B894"/>
<path d="M297.847 104.193C298.19 103.227 298.766 102.365 299.521 101.686C300.277 101.007 301.187 100.533 302.169 100.307L302.664 103.306L303.581 100.157C304.853 100.176 306.087 100.607 307.104 101.389C308.121 102.17 308.868 103.261 309.237 104.504C309.607 105.747 309.58 107.077 309.16 108.303C308.74 109.53 307.949 110.588 306.901 111.325C305.854 112.063 304.603 112.442 303.331 112.407C302.058 112.372 300.83 111.926 299.822 111.132C298.815 110.338 298.08 109.238 297.725 107.991C297.37 106.744 297.413 105.414 297.847 104.193H297.847Z" stroke="#3F3D56" stroke-miterlimit="10"/>
<path d="M302.017 137.665C303.403 138.178 304.926 138.152 306.295 137.593C307.664 137.035 308.783 135.981 309.44 134.634C310.097 133.287 310.245 131.741 309.856 130.289C309.467 128.838 308.568 127.584 307.331 126.765L306.627 129.185L306.127 126.151C306.122 126.149 306.117 126.147 306.112 126.145C305.371 125.87 304.583 125.747 303.795 125.783C303.007 125.818 302.234 126.012 301.519 126.353C300.804 126.694 300.163 127.175 299.63 127.769C299.098 128.363 298.685 129.058 298.416 129.814C298.147 130.571 298.027 131.374 298.062 132.178C298.098 132.983 298.288 133.772 298.622 134.501C298.957 135.23 299.429 135.884 300.011 136.427C300.593 136.97 301.275 137.391 302.017 137.665H302.017Z" fill="#57B894"/>
<path d="M302.302 136.568C303.689 137.081 305.211 137.056 306.58 136.497C307.949 135.938 309.069 134.885 309.726 133.538C310.383 132.191 310.531 130.644 310.142 129.193C309.753 127.742 308.854 126.487 307.617 125.668L306.913 128.088L306.413 125.055C306.408 125.052 306.403 125.05 306.398 125.049C305.656 124.774 304.869 124.651 304.081 124.686C303.293 124.722 302.52 124.916 301.805 125.256C301.09 125.597 300.448 126.078 299.916 126.672C299.383 127.266 298.971 127.961 298.702 128.718C298.433 129.474 298.313 130.278 298.348 131.082C298.383 131.886 298.574 132.675 298.908 133.404C299.242 134.133 299.714 134.788 300.297 135.331C300.879 135.874 301.561 136.294 302.302 136.568H302.302Z" stroke="#3F3D56" stroke-miterlimit="10"/>
<path d="M295.765 147.84C296.003 149.224 296.701 150.482 297.74 151.403C298.78 152.325 300.098 152.853 301.474 152.901C302.85 152.948 304.201 152.511 305.299 151.663C306.397 150.815 307.175 149.608 307.504 148.243C307.833 146.879 307.693 145.441 307.106 144.17C306.519 142.899 305.522 141.873 304.281 141.263C303.041 140.653 301.632 140.497 300.292 140.821C298.953 141.145 297.763 141.929 296.922 143.042L299.598 147.151L295.942 144.97C295.659 145.898 295.598 146.883 295.765 147.84Z" fill="#57B894"/>
<path d="M296.012 147.028C296.251 148.412 296.948 149.67 297.988 150.591C299.027 151.513 300.346 152.041 301.722 152.089C303.098 152.136 304.448 151.699 305.546 150.851C306.644 150.003 307.423 148.796 307.752 147.431C308.081 146.067 307.94 144.629 307.353 143.358C306.766 142.087 305.769 141.061 304.528 140.451C303.288 139.841 301.88 139.685 300.54 140.009C299.2 140.333 298.01 141.117 297.17 142.23L299.845 146.339L296.189 144.158C295.906 145.086 295.845 146.071 296.012 147.028V147.028Z" stroke="#3F3D56" stroke-miterlimit="10"/>
<path d="M3.09897 138.443C3.67324 138.656 4.28815 138.73 4.89524 138.659C5.50233 138.589 6.08499 138.375 6.59731 138.035C7.10963 137.695 7.5376 137.239 7.84749 136.701C8.15737 136.164 8.3407 135.561 8.38303 134.939C8.42536 134.317 8.32552 133.693 8.0914 133.117C7.85727 132.541 7.49525 132.029 7.03388 131.62C6.5725 131.211 6.02438 130.917 5.43271 130.762C4.84104 130.606 4.22201 130.592 3.62439 130.722L3.72315 132.794L2.76237 131.019C1.81941 131.471 1.09094 132.286 0.737032 133.286C0.611346 133.636 0.534938 134.003 0.510087 134.375C0.449442 135.248 0.669366 136.118 1.13653 136.852C1.6037 137.586 2.29264 138.145 3.09897 138.443Z" fill="#57B894"/>
<path d="M7.85295 162.475C7.51379 160.713 8.98343 159.151 10.4351 158.136C11.8868 157.12 13.583 156.122 14.0783 154.399C14.7901 151.922 12.6697 149.654 11.0194 147.698C9.79498 146.247 8.7435 144.652 7.88696 142.948C7.51457 142.279 7.26094 141.548 7.13773 140.788C7.0076 139.691 7.35326 138.598 7.7015 137.551C8.86159 134.063 10.1019 130.604 11.4225 127.174" stroke="#3F3D56" stroke-miterlimit="10"/>
<path d="M3.26147 137.91C3.83574 138.123 4.45065 138.197 5.05773 138.126C5.66482 138.055 6.24748 137.841 6.7598 137.502C7.27212 137.162 7.70009 136.705 8.00997 136.168C8.31986 135.63 8.50319 135.027 8.54551 134.405C8.58784 133.783 8.48801 133.16 8.25388 132.584C8.01976 132.008 7.65774 131.495 7.19636 131.087C6.73499 130.678 6.18686 130.384 5.5952 130.228C5.00354 130.072 4.3845 130.059 3.78689 130.189L3.88565 132.261L2.92486 130.485C1.9819 130.937 1.25343 131.753 0.899523 132.753C0.773838 133.103 0.697431 133.47 0.67258 133.842C0.61193 134.715 0.831853 135.584 1.29902 136.318C1.76619 137.052 2.45513 137.611 3.26147 137.91V137.91Z" stroke="#3F3D56" stroke-miterlimit="10"/>
<path d="M7.37072 126.458C7.59609 125.824 7.97434 125.257 8.47062 124.811C8.9669 124.365 9.56524 124.053 10.2105 123.905L10.5354 125.875L11.1376 123.806C11.9739 123.819 12.7845 124.102 13.4526 124.616C14.1206 125.129 14.6114 125.846 14.8542 126.662C15.097 127.479 15.0792 128.353 14.8034 129.159C14.5275 129.964 14.0079 130.66 13.3195 131.144C12.6311 131.629 11.8096 131.878 10.9736 131.855C10.1376 131.832 9.33028 131.539 8.6683 131.017C8.00632 130.496 7.52388 129.773 7.29065 128.954C7.05742 128.134 7.08546 127.26 7.37072 126.458Z" fill="#57B894"/>
<path d="M7.58737 125.747C7.81274 125.112 8.19099 124.546 8.68727 124.1C9.18354 123.654 9.78189 123.342 10.4272 123.194L10.752 125.164L11.3543 123.095C12.1905 123.108 13.0012 123.391 13.6692 123.904C14.3372 124.418 14.8281 125.135 15.0709 125.951C15.3137 126.768 15.2959 127.642 15.02 128.447C14.7441 129.253 14.2245 129.948 13.5361 130.433C12.8477 130.918 12.0262 131.166 11.1902 131.144C10.3542 131.121 9.54692 130.827 8.88494 130.306C8.22296 129.784 7.74053 129.062 7.5073 128.242C7.27407 127.423 7.30211 126.549 7.58737 125.747V125.747Z" stroke="#3F3D56" stroke-miterlimit="10"/>
<path d="M10.3268 147.738C11.2375 148.075 12.238 148.059 13.1375 147.692C14.037 147.324 14.7726 146.632 15.2041 145.747C15.6356 144.862 15.7329 143.846 15.4774 142.893C15.2218 141.939 14.6314 141.115 13.8185 140.577L13.3558 142.167L13.0276 140.174C13.0244 140.172 13.021 140.171 13.0176 140.17C12.5304 139.989 12.0131 139.908 11.4953 139.932C10.9774 139.955 10.4692 140.082 9.99954 140.306C9.5299 140.53 9.1081 140.846 8.75824 141.236C8.40838 141.626 8.13733 142.083 7.96056 142.58C7.78379 143.078 7.70479 143.605 7.72805 144.134C7.75132 144.662 7.8764 145.181 8.09615 145.66C8.3159 146.139 8.626 146.569 9.00875 146.925C9.3915 147.282 9.83938 147.558 10.3268 147.738Z" fill="#57B894"/>
<path d="M10.5145 147.018C11.4253 147.355 12.4257 147.338 13.3252 146.971C14.2247 146.604 14.9603 145.912 15.3918 145.027C15.8233 144.142 15.9206 143.126 15.6651 142.172C15.4096 141.219 14.8191 140.394 14.0063 139.857L13.5435 141.446L13.2153 139.453C13.2121 139.452 13.2087 139.451 13.2053 139.45C12.7182 139.269 12.2012 139.189 11.6836 139.212C11.166 139.236 10.6581 139.363 10.1888 139.587C9.24092 140.039 8.50798 140.857 8.15116 141.861C7.79434 142.865 7.84288 143.972 8.2861 144.939C8.72931 145.906 9.5309 146.654 10.5145 147.018V147.018Z" stroke="#3F3D56" stroke-miterlimit="10"/>
<path d="M6.21935 154.424C6.37594 155.333 6.83415 156.159 7.51712 156.765C8.2001 157.37 9.0663 157.718 9.97047 157.749C10.8746 157.78 11.7618 157.493 12.4831 156.935C13.2045 156.378 13.7161 155.585 13.9323 154.689C14.1485 153.792 14.056 152.847 13.6705 152.012C13.2849 151.177 12.6296 150.503 11.8146 150.102C10.9995 149.702 10.0743 149.599 9.19397 149.812C8.31366 150.025 7.53185 150.54 6.97964 151.271L8.73748 153.971L6.33561 152.538C6.14938 153.148 6.1095 153.795 6.21935 154.424Z" fill="#57B894"/>
<path d="M6.38182 153.89C6.53842 154.799 6.99662 155.626 7.6796 156.231C8.36257 156.837 9.22878 157.184 10.133 157.215C11.0371 157.246 11.9243 156.959 12.6456 156.402C13.367 155.845 13.8786 155.052 14.0948 154.155C14.311 153.259 14.2185 152.314 13.8329 151.479C13.4474 150.644 12.7921 149.97 11.9771 149.569C11.162 149.168 10.2368 149.066 9.35644 149.279C8.47614 149.491 7.69432 150.007 7.14211 150.738L8.89996 153.437L6.49808 152.005C6.31185 152.615 6.27198 153.261 6.38182 153.89V153.89Z" stroke="#3F3D56" stroke-miterlimit="10"/>
<path d="M139.27 100.426C141.979 100.426 144.175 97.526 144.175 93.9489C144.175 90.3718 141.979 87.472 139.27 87.472C136.561 87.472 134.365 90.3718 134.365 93.9489C134.365 97.526 136.561 100.426 139.27 100.426Z" fill="#2F2E41"/>
<path d="M165.959 100.573C168.668 100.573 170.864 97.6732 170.864 94.0961C170.864 90.519 168.668 87.6192 165.959 87.6192C163.25 87.6192 161.054 90.519 161.054 94.0961C161.054 97.6732 163.25 100.573 165.959 100.573Z" fill="#2F2E41"/>
<path d="M162.208 113.232C162.208 116.159 158.204 118.532 153.264 118.532C148.324 118.532 144.319 116.159 144.319 113.232C144.319 110.698 147.323 108.578 151.336 108.06C151.975 107.974 152.619 107.931 153.264 107.933C154.344 107.93 155.421 108.048 156.475 108.286C159.828 109.049 162.208 110.977 162.208 113.232Z" fill="#2F2E41"/>
<path d="M140.424 98.9538C143.133 98.9538 145.329 96.054 145.329 92.4769C145.329 88.8998 143.133 86 140.424 86C137.715 86 135.519 88.8998 135.519 92.4769C135.519 96.054 137.715 98.9538 140.424 98.9538Z" stroke="#3F3D56" stroke-miterlimit="10"/>
<path d="M167.114 99.101C169.823 99.101 172.019 96.2012 172.019 92.6241C172.019 89.047 169.823 86.1472 167.114 86.1472C164.405 86.1472 162.208 89.047 162.208 92.6241C162.208 96.2012 164.405 99.101 167.114 99.101Z" stroke="#3F3D56" stroke-miterlimit="10"/>
<path d="M154.418 117.06C159.358 117.06 163.363 114.687 163.363 111.76C163.363 108.834 159.358 106.461 154.418 106.461C149.478 106.461 145.473 108.834 145.473 111.76C145.473 114.687 149.478 117.06 154.418 117.06Z" stroke="#3F3D56" stroke-miterlimit="10"/>
<path d="M156.582 108.728C156.584 109.098 156.448 109.455 156.201 109.727C156.084 109.857 155.943 109.96 155.785 110.032C155.627 110.103 155.456 110.14 155.284 110.141H152.398C152.043 110.129 151.707 109.973 151.463 109.708C151.22 109.443 151.089 109.091 151.1 108.728C151.098 108.441 151.181 108.16 151.336 107.921C151.975 107.829 152.619 107.784 153.264 107.786C154.345 107.782 155.423 107.909 156.475 108.163C156.546 108.342 156.583 108.534 156.582 108.728Z" fill="white"/>
<path d="M140.424 92.1825C141.221 92.1825 141.867 91.5234 141.867 90.7105C141.867 89.8975 141.221 89.2384 140.424 89.2384C139.627 89.2384 138.981 89.8975 138.981 90.7105C138.981 91.5234 139.627 92.1825 140.424 92.1825Z" fill="white"/>
<path d="M167.258 92.1825C168.055 92.1825 168.7 91.5234 168.7 90.7105C168.7 89.8975 168.055 89.2384 167.258 89.2384C166.461 89.2384 165.815 89.8975 165.815 90.7105C165.815 91.5234 166.461 92.1825 167.258 92.1825Z" fill="white"/>
<path opacity="0.3" d="M168.7 106.019C169.497 106.019 170.143 105.36 170.143 104.547C170.143 103.734 169.497 103.075 168.7 103.075C167.904 103.075 167.258 103.734 167.258 104.547C167.258 105.36 167.904 106.019 168.7 106.019Z" fill="#7763FF"/>
<path opacity="0.3" d="M133.499 106.019C134.296 106.019 134.942 105.36 134.942 104.547C134.942 103.734 134.296 103.075 133.499 103.075C132.702 103.075 132.057 103.734 132.057 104.547C132.057 105.36 132.702 106.019 133.499 106.019Z" fill="#7763FF"/>
</g>
<defs>
<clipPath id="clip0_2_3">
<rect width="310" height="172" fill="white" transform="translate(0.5)"/>
</clipPath>
</defs>
</svg>
